<svg width="34" height="38" viewBox="0 0 34 38" fill="none" xmlns="http://www.w3.org/2000/svg">
<g filter="url(#filter0_dd_35_505)">
<path d="M4.50962 7.78867L17 0.57735L29.4904 7.78867V22.2113L17 29.4227L4.50962 22.2113V7.78867Z" stroke="#040404"/>
<path d="M16.6464 20.3536C16.8417 20.5488 17.1583 20.5488 17.3536 20.3536L20.5355 17.1716C20.7308 16.9763 20.7308 16.6597 20.5355 16.4645C20.3403 16.2692 20.0237 16.2692 19.8284 16.4645L17 19.2929L14.1716 16.4645C13.9763 16.2692 13.6597 16.2692 13.4645 16.4645C13.2692 16.6597 13.2692 16.9763 13.4645 17.1716L16.6464 20.3536ZM16.5 10V20H17.5V10H16.5Z" fill="#040404"/>
</g>
<defs>
<filter id="filter0_dd_35_505" x="0.00976562" y="0" width="33.9805" height="38" filterUnits="userSpaceOnUse" color-interpolation-filters="sRGB">
<feFlood flood-opacity="0" result="BackgroundImageFix"/>
<feColorMatrix in="SourceAlpha" type="matrix" values="0 0 0 0 0 0 0 0 0 0 0 0 0 0 0 0 0 0 127 0" result="hardAlpha"/>
<feOffset dy="4"/>
<feGaussianBlur stdDeviation="2"/>
<feComposite in2="hardAlpha" operator="out"/>
<feColorMatrix type="matrix" values="0 0 0 0 0 0 0 0 0 0 0 0 0 0 0 0 0 0 0.25 0"/>
<feBlend mode="normal" in2="BackgroundImageFix" result="effect1_dropShadow_35_505"/>
<feColorMatrix in="SourceAlpha" type="matrix" values="0 0 0 0 0 0 0 0 0 0 0 0 0 0 0 0 0 0 127 0" result="hardAlpha"/>
<feOffset dy="4"/>
<feGaussianBlur stdDeviation="2"/>
<feComposite in2="hardAlpha" operator="out"/>
<feColorMatrix type="matrix" values="0 0 0 0 0 0 0 0 0 0 0 0 0 0 0 0 0 0 0.25 0"/>
<feBlend mode="normal" in2="effect1_dropShadow_35_505" result="effect2_dropShadow_35_505"/>
<feBlend mode="normal" in="SourceGraphic" in2="effect2_dropShadow_35_505" result="shape"/>
</filter>
</defs>
</svg>
